HIERARCHY
ROOT Pelvis
{
	OFFSET 0.000000 0.000000 0.000000
	CHANNELS 6 Xposition Yposition Zposition Zrotation Yrotation Xrotation 
	JOINT Left_hip
	{
		OFFSET 0.076090 -0.089427 -0.010735
		CHANNELS 3 Zrotation Yrotation Xrotation
		JOINT Left_knee
		{
			OFFSET 0.030200 -0.359518 -0.003501
			CHANNELS 3 Zrotation Yrotation Xrotation
			JOINT Left_ankle
			{
				OFFSET -0.011005 -0.371022 -0.045888
				CHANNELS 3 Zrotation Yrotation Xrotation
				JOINT Left_foot
				{
					OFFSET 0.023930 -0.052103 0.111084
					CHANNELS 3 Zrotation Yrotation Xrotation
					End Site
					{
						OFFSET 0.000000 0.000000 0.000000
					}
				}
			}
		}
	}
	JOINT Right_hip
	{
		OFFSET -0.073836 -0.088112 -0.007709
		CHANNELS 3 Zrotation Yrotation Xrotation
		JOINT Right_knee
		{
			OFFSET -0.035715 -0.367809 -0.006536
			CHANNELS 3 Zrotation Yrotation Xrotation
			JOINT Right_ankle
			{
				OFFSET 0.013718 -0.371958 -0.043815
				CHANNELS 3 Zrotation Yrotation Xrotation
				JOINT Right_foot
				{
					OFFSET -0.021936 -0.046387 0.114542
					CHANNELS 3 Zrotation Yrotation Xrotation
					End Site
					{
						OFFSET 0.000000 0.000000 0.000000
					}
				}
			}
		}
	}
	JOINT Spine1
	{
		OFFSET -0.001865 0.102064 -0.019455
		CHANNELS 3 Zrotation Yrotation Xrotation
		JOINT Spine2
		{
			OFFSET 0.003082 0.129260 -0.001938
			CHANNELS 3 Zrotation Yrotation Xrotation
			JOINT Spine3
			{
				OFFSET 0.001104 0.048093 0.026561
				CHANNELS 3 Zrotation Yrotation Xrotation
				JOINT Neck
				{
					OFFSET -0.002010 0.204222 -0.047183
					CHANNELS 3 Zrotation Yrotation Xrotation
					JOINT Head
					{
						OFFSET 0.005050 0.063649 0.048489
						CHANNELS 3 Zrotation Yrotation Xrotation
						End Site
						{
							OFFSET 0.000000 0.000000 0.000000
						}
					}
				}
				JOINT Left_collar
				{
					OFFSET 0.072979 0.114065 -0.031633
					CHANNELS 3 Zrotation Yrotation Xrotation
					JOINT Left_shoulder
					{
						OFFSET 0.083419 0.032092 -0.006530
						CHANNELS 3 Zrotation Yrotation Xrotation
						JOINT Left_elbow
						{
							OFFSET 0.239393 -0.012014 -0.025060
							CHANNELS 3 Zrotation Yrotation Xrotation
							JOINT Left_wrist
							{
								OFFSET 0.227297 0.008116 0.000384
								CHANNELS 3 Zrotation Yrotation Xrotation
								JOINT Left_palm
								{
									OFFSET 0.074607 -0.009248 -0.012277
									CHANNELS 3 Zrotation Yrotation Xrotation
									End Site
									{
										OFFSET 0.000000 0.000000 0.000000
									}
								}
							}
						}
					}
				}
				JOINT Right_collar
				{
					OFFSET -0.074980 0.111880 -0.037894
					CHANNELS 3 Zrotation Yrotation Xrotation
					JOINT Right_shoulder
					{
						OFFSET -0.087565 0.034353 -0.009323
						CHANNELS 3 Zrotation Yrotation Xrotation
						JOINT Right_elbow
						{
							OFFSET -0.236838 -0.013719 -0.019794
							CHANNELS 3 Zrotation Yrotation Xrotation
							JOINT Right_wrist
							{
								OFFSET -0.235053 0.006433 -0.003853
								CHANNELS 3 Zrotation Yrotation Xrotation
								JOINT Right_palm
								{
									OFFSET -0.075499 -0.006894 -0.009792
									CHANNELS 3 Zrotation Yrotation Xrotation
									End Site
									{
										OFFSET 0.000000 0.000000 0.000000
									}
								}
							}
						}
					}
				}
			}
		}
	}
}
MOTION
Frames: 10
Frame Time: 0.100000
-0.417140 -0.261995 1.323320 162.645005 56.228037 2.723372 1.636119 -1.269285 -36.684945 -5.619553 -7.685631 1.121049 -4.256789 13.923650 3.806782 3.054364 5.932708 2.802230 1.000828 -0.666330 -43.397749 0.774869 1.465712 10.813629 10.548256 -18.671756 -0.100019 -13.747099 10.069354 3.789284 6.848068 -4.460462 62.801283 -8.617446 -0.648786 10.566407 2.467367 5.164637 5.722243 -22.530047 -9.955623 12.590629 14.318751 5.527112 -30.238037 28.663382 -38.043708 -24.483588 6.366192 -23.765978 -21.681921 23.335922 -31.651628 -35.784973 21.389869 1.238662 -18.541150 8.084862 -0.667126 4.807813 -46.864563 41.089462 -24.784791 -13.224731 13.109295 -27.728655 0.940566 10.923633 -5.093339 -16.683585 6.602125 36.104856 -0.614351 5.527907 -7.917483 
-0.422002 -0.264564 1.330183 162.342898 56.349037 3.028794 2.008206 -0.926158 -36.899602 -5.768136 -7.119818 1.323107 -4.434075 13.501788 2.990405 3.578382 5.219674 3.871755 1.063437 -0.171125 -43.492830 0.658008 0.366051 10.914072 9.096689 -16.620617 -0.270825 -11.226889 6.616180 5.357540 6.564068 -4.107162 62.438838 -8.889132 -0.412309 10.657009 2.408797 5.372189 4.500111 -23.451966 -10.958613 11.062989 14.020794 5.480463 -30.447906 27.697851 -39.373409 -24.341271 5.716379 -24.103541 -20.699044 24.835431 -30.750968 -36.047811 12.694301 -2.744921 -17.212464 9.095611 1.736034 4.871767 -47.175710 42.565919 -25.502929 -11.314979 14.420929 -26.048529 2.943012 13.256284 -2.606229 1.721812 2.797819 28.123576 -6.146696 3.011327 -3.594911 
-0.429222 -0.268155 1.340745 162.284104 56.076575 3.369439 2.360116 -0.885070 -36.907029 -5.516576 -6.888339 2.177054 -4.642286 13.457175 2.030402 4.186915 5.416149 4.274531 1.496930 0.328662 -43.332849 0.489289 0.323599 11.348195 9.052721 -16.338756 -0.834483 -11.477645 6.526619 5.085827 6.072076 -3.507551 62.422211 -9.084753 -0.236358 10.703711 2.357307 5.536876 3.884455 -23.126437 -11.364992 8.437896 14.059122 4.185549 -30.841967 27.443883 -40.326269 -24.051696 4.879719 -23.706906 -20.070455 24.690859 -30.295429 -35.906600 12.216339 -3.089430 -16.881186 9.135208 1.956992 4.480778 -47.606826 44.780005 -26.635685 -9.518836 17.562239 -25.652013 3.270847 12.866777 -2.203476 2.574590 2.287329 26.990966 -6.289660 2.839919 -3.532440 
-0.437194 -0.272399 1.353767 161.986875 56.675896 3.921917 2.491317 -0.952370 -37.099911 -5.201107 -7.226221 2.649423 -4.958238 13.438991 1.393184 4.904964 5.264833 4.553679 1.770013 0.633271 -43.460503 0.348602 0.024385 11.904520 8.927341 -16.462172 -1.609490 -11.632073 6.286726 4.900309 5.979801 -3.223271 62.473842 -8.865141 -0.164773 10.346103 2.580490 5.698704 3.454239 -22.493902 -11.408827 6.237418 14.062180 3.434643 -31.509738 27.719946 -40.774185 -23.895495 4.377607 -22.971026 -19.240215 23.634189 -30.157345 -34.207197 12.355446 -3.637257 -16.171911 9.112732 2.173620 3.684234 -48.038131 46.195439 -27.363594 -8.389365 19.555464 -25.543456 3.349935 12.254575 -2.094451 1.747514 2.788699 26.152131 -6.189958 2.649670 -3.781761 
-0.443571 -0.276657 1.367114 161.820487 57.850248 4.832277 2.626484 -1.227781 -37.679494 -5.027076 -7.973826 3.017642 -5.214107 13.419954 1.141398 5.251237 4.888519 4.625068 1.880501 0.616339 -43.962852 0.354002 -0.305398 12.527999 8.953877 -17.162779 -2.583159 -12.026621 6.644950 4.844951 6.076700 -3.196680 62.617892 -8.613029 -0.232589 9.601740 2.733829 5.853338 3.325302 -21.970130 -11.546886 4.577715 14.476898 3.031245 -31.915982 28.671912 -40.900345 -24.480871 5.307259 -22.630587 -19.469464 22.326074 -29.809548 -32.903176 12.631512 -3.865918 -16.068427 9.123313 2.201825 3.546658 -48.200060 46.516756 -27.466113 -8.423768 19.141929 -25.433947 3.403379 12.133872 -1.820140 0.838662 3.519064 25.762955 -6.091477 2.558047 -3.856988 
-0.447009 -0.279269 1.379349 161.634356 59.257620 6.052508 2.879929 -1.676864 -38.870241 -4.837797 -8.855730 3.403923 -5.282179 13.383463 0.960347 5.209939 4.543818 4.386724 1.770879 0.636750 -45.296137 0.442792 -0.754288 13.685579 8.679622 -17.736444 -3.661869 -11.664590 6.723240 5.277671 6.202078 -3.465745 62.972130 -8.627596 -0.117613 8.238401 2.714129 5.966816 3.285653 -21.773093 -12.141210 3.132385 14.782033 2.834181 -32.000903 29.722226 -40.483994 -25.395741 6.841161 -23.559541 -20.577572 23.008619 -29.826509 -33.651463 12.736052 -3.955924 -17.817561 9.658285 2.613444 4.372016 -48.369317 45.876335 -27.242375 -9.210729 17.494425 -25.977299 3.397382 11.255185 -4.208955 1.005992 4.119538 20.840052 -6.749321 1.932876 -2.854557 
-0.446436 -0.277502 1.387646 162.825765 61.778639 9.169252 2.190268 -3.052821 -43.262771 -5.190333 -9.712740 7.757650 -5.004164 12.960062 -0.226609 5.466828 4.798586 2.487261 0.254049 0.463065 -50.590897 0.147983 -1.455209 20.293667 9.144661 -19.127618 -6.070419 -12.640142 7.591492 4.737021 6.824421 -4.538771 64.342416 -8.383410 0.402826 5.116304 2.538692 6.134612 3.598884 -21.081252 -13.610745 -0.545790 14.549660 1.044711 -31.256275 30.758883 -39.087590 -26.378108 7.793627 -25.931563 -21.684286 24.961937 -31.651606 -33.179062 13.086115 -4.133815 -19.235620 10.279667 3.157311 5.313706 -47.515315 44.794486 -26.275321 -10.014526 14.888729 -27.016618 2.795895 9.354943 -10.090887 -0.909824 5.103233 13.048567 -7.323181 0.998303 -2.062963 
-0.441258 -0.265561 1.391909 168.447785 64.771728 16.597711 0.895532 -6.211395 -52.786672 -7.365635 -9.257354 19.117624 -5.183738 13.208382 -3.195614 7.261049 5.913504 -0.710856 -3.558464 -0.057209 -60.551302 -0.268198 -1.510064 33.193383 12.014345 -22.188360 -10.222661 -17.279773 10.843589 2.789038 7.809536 -6.585739 68.443513 -8.787199 1.634096 0.895547 1.258133 6.477927 3.997126 -18.787006 -15.461424 -9.898600 13.688952 -2.314337 -29.767706 30.884193 -37.318364 -25.492712 12.294612 -26.272427 -23.094817 30.844153 -36.451345 -37.485791 11.697406 -5.824802 -22.656999 11.915301 4.142761 6.988756 -45.275867 43.194358 -25.107352 -13.424003 9.675947 -28.582870 2.519899 6.642444 -22.409789 -1.758979 5.486579 0.786770 -9.015932 -0.774458 -0.453628 
-0.435059 -0.233409 1.393922 -179.219441 64.513358 28.232595 0.623628 -11.068936 -62.429695 -11.449292 -2.472439 33.890610 1.616849 13.424213 -9.482004 -0.498543 8.780145 -1.308660 -11.520243 -1.962193 -70.835272 0.083304 -4.272867 51.062645 9.919791 -20.674275 -15.412158 -11.859954 7.083664 7.047858 7.636780 -8.071454 72.618016 -9.881112 1.885814 0.243756 -0.337365 6.638852 2.955321 -19.337180 -16.952891 -14.131062 14.279614 -6.528123 -33.911231 28.519152 -41.909409 -28.619435 16.965083 -21.617442 -15.199969 38.753487 -39.389775 -46.548520 15.396191 -11.008048 -10.364134 5.653199 6.577581 -0.097094 -43.224095 45.400937 -27.649492 -15.242574 3.297400 -26.779984 -0.329383 5.369304 -40.767309 1.179382 0.927369 -8.834303 -10.649888 -0.825394 -3.569971 
-0.433300 -0.194591 1.394106 -175.672668 63.388815 31.384451 -0.058481 -11.084208 -69.950548 -12.918691 2.930552 46.742981 5.856279 12.097531 -14.001940 -4.077987 11.083202 -3.427596 -13.183471 -3.973746 -76.095945 0.088643 -5.138151 60.907028 6.887661 -18.444544 -20.475205 -8.219681 3.879477 7.594416 7.972529 -7.857854 75.045510 -9.177256 2.430602 -1.059594 0.014568 6.597969 2.344191 -20.110868 -19.076167 -14.547838 12.218050 -7.473786 -35.573979 24.822992 -41.827900 -28.209029 14.454376 -22.387345 -14.745721 42.215044 -40.644869 -45.127359 13.153102 -11.040201 -6.466098 2.078527 7.482878 -3.371888 -40.237130 47.193995 -25.908856 -14.048831 3.048520 -30.198309 -2.261876 5.377205 -54.737193 4.361090 2.502656 -25.340577 -9.208137 -1.474547 -3.671036 
